<svg width="210" height="40" viewBox="0 0 210 40" fill="none" xmlns="http://www.w3.org/2000/svg">
<path fill-rule="evenodd" clip-rule="evenodd" d="M8.55273 3.59787C7.12207 4.59823 5.82837 5.78098 4.70532 7.1124C9.29462 6.68633 15.1252 7.38205 21.8944 10.7667C29.123 14.3809 34.9438 14.5031 38.9948 13.7217C38.6272 12.6088 38.1644 11.5392 37.6163 10.5224C32.979 11.0115 27.034 10.3641 20.1056 6.89998C15.706 4.70018 11.8278 3.79401 8.55273 3.59787ZM34.9074 6.66665C31.2453 2.575 25.9234 0 20 0C18.2605 0 16.5727 0.22211 14.9637 0.63948C17.1429 1.23409 19.4579 2.10399 21.8944 3.32227C26.967 5.85853 31.3464 6.67516 34.9074 6.66665ZM39.8609 17.6281C34.9669 18.5945 28.2088 18.396 20.1056 14.3444C12.53 10.5566 6.50043 10.6043 2.4339 11.508C2.224 11.5546 2.01904 11.6036 1.81903 11.6546C1.28662 12.8125 0.861634 14.0301 0.556702 15.2945C0.882386 15.2075 1.21893 15.1248 1.56616 15.0476C6.49957 13.9513 13.4701 13.9989 21.8944 18.2111C29.4701 21.9989 35.4996 21.9512 39.5662 21.0475C39.7055 21.0166 39.8428 20.9846 39.9778 20.9516C39.9926 20.6363 40 20.319 40 20C40 19.1975 39.9528 18.406 39.8609 17.6281ZM39.3248 25.1723C34.4783 26.0196 27.917 25.6944 20.1056 21.7888C12.53 18.001 6.50043 18.0487 2.4339 18.9524C1.53125 19.1529 0.719239 19.3972 0.00293 19.6551C0.000977 19.7698 0 19.8848 0 20C0 31.0457 8.95429 40 20 40C29.2571 40 37.0453 33.7109 39.3248 25.1723Z" fill="#0E8BFF"/>
<path d="M47.0789 32V8.08081H52.136V17.9498H62.4021V8.08081H67.4476V32H62.4021V22.1193H52.136V32H47.0789ZM79.6992 32.3504C77.8538 32.3504 76.2655 31.9766 74.934 31.2292C73.6104 30.4739 72.5904 29.4072 71.8741 28.029C71.1577 26.6431 70.7996 25.0041 70.7996 23.1121C70.7996 21.2667 71.1577 19.6472 71.8741 18.2535C72.5904 16.8597 73.5987 15.7736 74.899 14.9949C76.2071 14.2163 77.7409 13.827 79.5006 13.827C80.6841 13.827 81.7859 14.0178 82.8059 14.3993C83.8336 14.773 84.7291 15.3375 85.4921 16.0928C86.2629 16.8481 86.8625 17.798 87.2907 18.9426C87.719 20.0793 87.9331 21.4108 87.9331 22.9369V24.3033H72.785V21.22H83.2497C83.2497 20.5037 83.094 19.8691 82.7825 19.3163C82.4711 18.7635 82.0389 18.3313 81.4861 18.0199C80.9411 17.7007 80.3065 17.541 79.5824 17.541C78.8271 17.541 78.1575 17.7162 77.5735 18.0666C76.9974 18.4092 76.5458 18.8725 76.2187 19.4564C75.8917 20.0326 75.7243 20.675 75.7165 21.3835V24.315C75.7165 25.2027 75.88 25.9696 76.2071 26.6158C76.5419 27.2621 77.0129 27.7604 77.6203 28.1108C78.2276 28.4612 78.9478 28.6364 79.7809 28.6364C80.3338 28.6364 80.8399 28.5585 81.2992 28.4028C81.7586 28.2471 82.1518 28.0135 82.4788 27.702C82.8059 27.3906 83.055 27.009 83.2263 26.5575L87.828 26.8611C87.5944 27.9668 87.1155 28.9322 86.3914 29.7576C85.6751 30.5751 84.7485 31.2136 83.6117 31.673C82.4827 32.1246 81.1786 32.3504 79.6992 32.3504ZM96.2955 32.3387C95.1509 32.3387 94.1309 32.1402 93.2355 31.7431C92.3401 31.3382 91.6315 30.7425 91.1098 29.9561C90.596 29.1619 90.339 28.1731 90.339 26.9896C90.339 25.993 90.522 25.1559 90.8879 24.4785C91.2539 23.8011 91.7522 23.2561 92.3829 22.8434C93.0136 22.4308 93.7299 22.1193 94.5319 21.9091C95.3416 21.6989 96.1903 21.5509 97.078 21.4653C98.1213 21.3563 98.9622 21.2551 99.6007 21.1616C100.239 21.0604 100.702 20.9125 100.991 20.7178C101.279 20.5231 101.423 20.2351 101.423 19.8535V19.7835C101.423 19.0438 101.189 18.4715 100.722 18.0666C100.263 17.6617 99.6085 17.4593 98.7598 17.4593C97.8644 17.4593 97.1519 17.6578 96.6225 18.0549C96.093 18.4442 95.7426 18.9348 95.5713 19.5265L90.9697 19.1528C91.2033 18.0627 91.6627 17.1206 92.3479 16.3264C93.033 15.5244 93.9168 14.9093 94.9991 14.4811C96.0891 14.045 97.3505 13.827 98.7831 13.827C99.7798 13.827 100.734 13.9438 101.645 14.1774C102.563 14.411 103.377 14.773 104.086 15.2636C104.802 15.7541 105.366 16.3848 105.779 17.1556C106.192 17.9187 106.398 18.8335 106.398 19.9003V32H101.68V29.5123H101.539C101.251 30.0729 100.866 30.5673 100.383 30.9956C99.9005 31.416 99.3204 31.7469 98.643 31.9883C97.9656 32.2219 97.1831 32.3387 96.2955 32.3387ZM97.7203 28.905C98.4522 28.905 99.0985 28.7609 99.6591 28.4729C100.22 28.177 100.66 27.7799 100.979 27.2816C101.298 26.7832 101.458 26.2188 101.458 25.5881V23.6843C101.302 23.7856 101.088 23.879 100.815 23.9646C100.551 24.0425 100.251 24.1165 99.916 24.1866C99.5812 24.2488 99.2464 24.3072 98.9116 24.3617C98.5768 24.4085 98.2731 24.4513 98.0006 24.4902C97.4167 24.5759 96.9067 24.7121 96.4706 24.899C96.0346 25.0859 95.6959 25.3389 95.4545 25.6581C95.2132 25.9696 95.0925 26.3589 95.0925 26.8261C95.0925 27.5035 95.3378 28.0213 95.8283 28.3794C96.3266 28.7298 96.9573 28.905 97.7203 28.905ZM115.233 8.08081V32H110.258V8.08081H115.233ZM128.761 14.0606V17.798H117.958V14.0606H128.761ZM120.41 9.76263H125.386V26.4874C125.386 26.9468 125.456 27.3049 125.596 27.5619C125.736 27.811 125.931 27.9862 126.18 28.0874C126.437 28.1887 126.733 28.2393 127.067 28.2393C127.301 28.2393 127.535 28.2198 127.768 28.1809C128.002 28.1342 128.181 28.0991 128.305 28.0758L129.088 31.7781C128.839 31.856 128.488 31.9455 128.037 32.0467C127.585 32.1557 127.036 32.2219 126.39 32.2453C125.191 32.292 124.14 32.1324 123.237 31.7664C122.341 31.4005 121.644 30.8321 121.146 30.0612C120.648 29.2904 120.402 28.3171 120.41 27.1414V9.76263ZM137.363 21.6288V32H132.387V8.08081H137.223V17.2257H137.433C137.838 16.1668 138.492 15.3375 139.395 14.738C140.298 14.1307 141.431 13.827 142.794 13.827C144.039 13.827 145.126 14.0995 146.052 14.6446C146.986 15.1818 147.711 15.9565 148.225 16.9688C148.746 17.9732 149.003 19.1761 148.995 20.5777V32H144.02V21.4653C144.028 20.3596 143.747 19.4993 143.179 18.8842C142.618 18.269 141.832 17.9615 140.82 17.9615C140.142 17.9615 139.543 18.1055 139.021 18.3936C138.507 18.6817 138.102 19.1022 137.807 19.655C137.518 20.2 137.371 20.858 137.363 21.6288ZM152.911 32V14.0606H157.886V32H152.911ZM155.41 11.7481C154.67 11.7481 154.036 11.5028 153.506 11.0123C152.985 10.514 152.724 9.91835 152.724 9.22538C152.724 8.54019 152.985 7.95234 153.506 7.46181C154.036 6.96349 154.67 6.71433 155.41 6.71433C156.15 6.71433 156.781 6.96349 157.302 7.46181C157.832 7.95234 158.096 8.54019 158.096 9.22538C158.096 9.91835 157.832 10.514 157.302 11.0123C156.781 11.5028 156.15 11.7481 155.41 11.7481ZM161.965 32V8.08081H166.941V17.0739H167.092C167.31 16.5911 167.626 16.1006 168.038 15.6023C168.459 15.0962 169.004 14.6757 169.674 14.3409C170.351 13.9983 171.192 13.827 172.196 13.827C173.504 13.827 174.711 14.1696 175.817 14.8548C176.922 15.5322 177.806 16.5561 178.468 17.9265C179.13 19.289 179.461 20.9981 179.461 23.0537C179.461 25.0547 179.138 26.7443 178.491 28.1225C177.853 29.4928 176.981 30.5323 175.875 31.2408C174.777 31.9416 173.547 32.292 172.185 32.292C171.219 32.292 170.398 32.1324 169.72 31.8131C169.051 31.4939 168.502 31.0929 168.073 30.6102C167.645 30.1196 167.318 29.6252 167.092 29.1269H166.87V32H161.965ZM166.835 23.0303C166.835 24.097 166.983 25.0275 167.279 25.8217C167.575 26.6158 168.003 27.2348 168.564 27.6787C169.125 28.1147 169.806 28.3327 170.608 28.3327C171.418 28.3327 172.103 28.1108 172.663 27.667C173.224 27.2154 173.648 26.5925 173.936 25.7983C174.232 24.9963 174.38 24.0737 174.38 23.0303C174.38 21.9947 174.236 21.0838 173.948 20.2973C173.66 19.5109 173.236 18.8958 172.675 18.452C172.114 18.0082 171.425 17.7863 170.608 17.7863C169.798 17.7863 169.113 18.0004 168.552 18.4287C167.999 18.8569 167.575 19.4642 167.279 20.2506C166.983 21.037 166.835 21.9636 166.835 23.0303ZM187.756 8.08081V32H182.781V8.08081H187.756ZM199.917 32.3504C198.072 32.3504 196.483 31.9766 195.152 31.2292C193.828 30.4739 192.808 29.4072 192.092 28.029C191.376 26.6431 191.017 25.0041 191.017 23.1121C191.017 21.2667 191.376 19.6472 192.092 18.2535C192.808 16.8597 193.817 15.7736 195.117 14.9949C196.425 14.2163 197.959 13.827 199.718 13.827C200.902 13.827 202.004 14.0178 203.024 14.3993C204.052 14.773 204.947 15.3375 205.71 16.0928C206.481 16.8481 207.08 17.798 207.509 18.9426C207.937 20.0793 208.151 21.4108 208.151 22.9369V24.3033H193.003V21.22H203.468C203.468 20.5037 203.312 19.8691 203 19.3163C202.689 18.7635 202.257 18.3313 201.704 18.0199C201.159 17.7007 200.524 17.541 199.8 17.541C199.045 17.541 198.375 17.7162 197.791 18.0666C197.215 18.4092 196.764 18.8725 196.437 19.4564C196.11 20.0326 195.942 20.675 195.934 21.3835V24.315C195.934 25.2027 196.098 25.9696 196.425 26.6158C196.76 27.2621 197.231 27.7604 197.838 28.1108C198.445 28.4612 199.166 28.6364 199.999 28.6364C200.552 28.6364 201.058 28.5585 201.517 28.4028C201.976 28.2471 202.37 28.0135 202.697 27.702C203.024 27.3906 203.273 27.009 203.444 26.5575L208.046 26.8611C207.812 27.9668 207.333 28.9322 206.609 29.7576C205.893 30.5751 204.966 31.2136 203.83 31.673C202.701 32.1246 201.396 32.3504 199.917 32.3504Z" fill="#233447"/>
</svg>
